<svg xmlns="http://www.w3.org/2000/svg" xmlns:xlink="http://www.w3.org/1999/xlink" width="300" height="300" viewBox="0 0 300 300">
  <defs>
    <clipPath id="clip-path">
      <rect id="Rectangle_1559" data-name="Rectangle 1559" width="251.761" height="251.809" fill="#5F5F5F"/>
    </clipPath>
    <clipPath id="clip-Icon_menu_burger">
      <rect width="300" height="300"/>
    </clipPath>
  </defs>
  <g id="Icon_menu_burger" data-name="Icon menu burger" clip-path="url(#clip-Icon_menu_burger)">
    <g id="Group_5341" data-name="Group 5341" transform="translate(150.016 -28.038) rotate(45)">
      <g id="Group_5001" data-name="Group 5001" clip-path="url(#clip-path)">
        <path id="Path_16847" data-name="Path 16847" d="M0,125.776C.208,56.15,56.814-.237,126.263,0c69.175.238,125.815,57.133,125.5,126.064A126.01,126.01,0,0,1,124.393,251.806C55.978,251.389-.2,194.468,0,125.776m109.993.37a33.078,33.078,0,0,0-2.579,2.072Q92.705,142.89,78.036,157.6c-3.957,3.973-4.946,8.9-2.809,13.468,3.447,7.368,12.787,8.831,18.839,2.837,9.9-9.808,19.722-19.7,29.581-29.559.681-.681,1.4-1.327,2.213-2.1.756.695,1.418,1.262,2.034,1.877q9.008,9,18,18.011c4.17,4.17,8.286,8.4,12.532,12.488a11.422,11.422,0,0,0,19.223-5.894c.925-4.416-.75-8.009-3.867-11.112q-14.82-14.75-29.572-29.567c-.672-.673-1.315-1.374-2.456-2.569a21.67,21.67,0,0,0,2.606-1.887c9.813-9.775,19.578-19.595,29.4-29.362,3.119-3.1,4.809-6.687,3.9-11.1a10.894,10.894,0,0,0-7.833-8.7c-4.53-1.408-8.466-.178-11.769,3.117q-14.992,14.956-29.948,29.95c-.68.68-1.4,1.324-2.219,2.1-.819-.769-1.539-1.408-2.218-2.087Q108.791,92.632,93.908,77.756c-5.051-5.021-12.078-5.18-16.723-.491S72.763,88.9,77.8,93.993c5.405,5.462,10.854,10.881,16.292,16.31,5.117,5.109,10.243,10.206,15.9,15.843" transform="translate(0)" fill="#5F5F5F"/>
      </g>
    </g>
  </g>
</svg>
