<svg xmlns="http://www.w3.org/2000/svg" xmlns:xlink="http://www.w3.org/1999/xlink" width="300" height="300" viewBox="0 0 300 300">
  <defs>
    <clipPath id="clip-Menu_home_-_grey">
      <rect width="300" height="300"/>
    </clipPath>
  </defs>
  <g id="Menu_home_-_grey" data-name="Menu home - grey" clip-path="url(#clip-Menu_home_-_grey)">
    <g id="Group_10838" data-name="Group 10838" transform="translate(192.163 655.268)">
      <path id="Path_58390" data-name="Path 58390" d="M82.2-511.355c.031-13.029-4.613-23.8-14.346-32.583-27.122-24.46-54.09-49.089-81.175-73.59-17.251-15.605-39.947-15.667-57.179-.1q-40.924,36.965-81.71,74.083a40.768,40.768,0,0,0-13.535,25.019,9.044,9.044,0,0,1-.416,1.362v99.414c.459,1.938.813,3.909,1.394,5.811,5.207,17.048,16.429,27.43,34.1,30.628a11.577,11.577,0,0,1,1.371.419H45.8c3.252-.87,6.639-1.4,9.731-2.662,15.3-6.223,23.465-18.071,26.12-34.03a48.9,48.9,0,0,0,.5-7.962C82.19-454.149,82.13-482.753,82.2-511.355ZM56.036-421.334c-.02,9.679-7.21,16.62-17.055,16.63q-40.856.041-81.711.008-40.249,0-80.5,0c-11.193,0-18.132-6.934-18.133-18.129q-.007-43.759.019-87.513a42.9,42.9,0,0,1,.471-6.273c.524-3.509,2.506-6.079,5.151-8.46q28.658-25.776,57.137-51.752,12.21-11.078,24.425-22.146c5.539-4.992,15.866-6.854,23.307.006,26.676,24.591,53.7,48.811,80.487,73.278a18.849,18.849,0,0,1,6.406,14.17Q56.1-466.423,56.036-421.334Z" transform="translate(0 0)" fill="#5F5F5F"/>
      <rect id="Rectangle_2506" data-name="Rectangle 2506" width="42.289" height="42.289" transform="translate(-93.88 -472.725)" fill="#5F5F5F"/>
      <rect id="Rectangle_2507" data-name="Rectangle 2507" width="42.289" height="42.289" transform="translate(-33.7 -472.725)" fill="#5F5F5F"/>
    </g>
  </g>
</svg>
