<svg xmlns="http://www.w3.org/2000/svg" xmlns:xlink="http://www.w3.org/1999/xlink" width="300" height="300" viewBox="0 0 300 300">
  <defs>
    <clipPath id="clip-Menu_home_-_color">
      <rect width="300" height="300"/>
    </clipPath>
  </defs>
  <g id="Menu_home_-_color" data-name="Menu home - color" clip-path="url(#clip-Menu_home_-_color)">
    <path id="Path_58406" data-name="Path 58406" d="M-2855.192-872.58c.032-12.941-4.581-23.647-14.25-32.366-26.939-24.3-53.735-48.763-80.637-73.1-17.137-15.5-39.683-15.563-56.8-.1q-40.649,36.72-81.168,73.591a40.527,40.527,0,0,0-13.445,24.854,8.781,8.781,0,0,1-.412,1.353V-779.6c.456,1.926.809,3.882,1.386,5.772,5.174,16.938,16.319,27.249,33.869,30.425a11.894,11.894,0,0,1,1.363.414h173.941c3.227-.861,6.593-1.392,9.666-2.642,15.2-6.183,23.312-17.952,25.945-33.8a48.661,48.661,0,0,0,.5-7.91C-2855.2-815.752-2855.262-844.166-2855.192-872.58Zm-73.124,86.4h-42v-42.008h42Zm-59.781,0H-3030.1v-42.008h42.007Z" transform="translate(3128.906 1016.709)" fill="#1411eb"/>
  </g>
</svg>
