<svg xmlns="http://www.w3.org/2000/svg" xmlns:xlink="http://www.w3.org/1999/xlink" width="300" height="300" viewBox="0 0 300 300">
  <defs>
    <clipPath id="clip-Icon_Logout">
      <rect width="300" height="300"/>
    </clipPath>
  </defs>
  <g id="Icon_Logout" data-name="Icon Logout" clip-path="url(#clip-Icon_Logout)">
    <g id="Group_10833" data-name="Group 10833" transform="translate(1304.87 3841.103)">
      <path id="Path_58539" data-name="Path 58539" d="M-1236.885-3721.887h-20.062c-.046-.793-.122-1.488-.122-2.18-.007-9.348-.056-18.691.007-28.039.155-23.336,17.795-41.113,41.133-41.172q61.091-.158,122.185,0c23.223.07,40.938,17.789,41.008,41.031q.183,61.107,0,122.211c-.065,23.352-17.8,41.051-41.185,41.109q-60.974.158-121.945,0c-21.216-.043-37.837-14.625-40.913-35.613a42.482,42.482,0,0,1-.286-5.977c-.028-9.105-.012-18.211-.012-27.32v-2.461h20.363v2.539c0,8.867-.015,17.734.006,26.6.026,13.242,8.663,21.883,21.926,21.891q59.895.023,119.789,0c13.262-.008,21.912-8.641,21.917-21.9q.025-59.906,0-119.812c0-13.285-8.631-21.949-21.861-21.953q-59.893-.023-119.787,0c-13.381,0-21.967,8.641-21.988,22.066q-.022,14.139-.03,28.273A4.773,4.773,0,0,1-1236.885-3721.887Z" transform="translate(0 0)" fill="#5F5F5F"/>
      <path id="Path_58540" data-name="Path 58540" d="M-1224.987-3672.484h97.74c-.9-1-1.408-1.625-1.971-2.187q-10.575-10.6-21.159-21.18a9.835,9.835,0,0,1-2.535-10.781,9.676,9.676,0,0,1,8.511-6.746,9.425,9.425,0,0,1,8.1,2.758q20.619,20.543,41.147,41.16a9.88,9.88,0,0,1,.006,14.234q-20.481,20.678-41.156,41.152a10.039,10.039,0,0,1-14.24-.133,10.157,10.157,0,0,1,0-14.426c7-7.121,14.082-14.145,21.171-21.168a10.764,10.764,0,0,1,2.264-1.348c-.221-.309-.443-.625-.664-.937h-97.22Z" transform="translate(-11.557 -28.76)" fill="#5F5F5F"/>
    </g>
  </g>
</svg>
